<svg width="38" height="38" viewBox="0 0 38 38" fill="none" xmlns="http://www.w3.org/2000/svg">
<path d="M30.0833 12.668H7.91667C6.16776 12.668 4.75 14.0857 4.75 15.8346V31.668C4.75 33.4169 6.16776 34.8346 7.91667 34.8346H30.0833C31.8322 34.8346 33.25 33.4169 33.25 31.668V15.8346C33.25 14.0857 31.8322 12.668 30.0833 12.668Z" stroke="#111111" stroke-width="2" stroke-linecap="round" stroke-linejoin="round"/>
<path d="M19 7.91797C19 6.97851 18.7214 6.06015 18.1995 5.27901C17.6775 4.49788 16.9357 3.88906 16.0677 3.52954C15.1998 3.17003 14.2447 3.07596 13.3233 3.25924C12.4019 3.44252 11.5555 3.89491 10.8912 4.55921C10.2269 5.22351 9.77455 6.06988 9.59127 6.99129C9.40799 7.9127 9.50206 8.86777 9.86157 9.73572C10.2211 10.6037 10.8299 11.3455 11.611 11.8675C12.3922 12.3894 13.3105 12.668 14.25 12.668M19 7.91797C19 6.97851 19.2786 6.06015 19.8005 5.27901C20.3225 4.49788 21.0643 3.88906 21.9323 3.52954C22.8002 3.17003 23.7553 3.07596 24.6767 3.25924C25.5981 3.44252 26.4445 3.89491 27.1088 4.55921C27.7731 5.22351 28.2255 6.06988 28.4087 6.99129C28.592 7.9127 28.4979 8.86777 28.1384 9.73572C27.7789 10.6037 27.1701 11.3455 26.389 11.8675C25.6078 12.3894 24.6895 12.668 23.75 12.668M19 7.91797V34.8346M33.25 23.7513H4.75" stroke="#111111" stroke-width="2" stroke-linecap="round" stroke-linejoin="round"/>
</svg>
