<svg width="38" height="38" viewBox="0 0 38 38" fill="none" xmlns="http://www.w3.org/2000/svg">
<path d="M6.29695 15.5813C6.36064 14.7877 6.72089 14.0473 7.30597 13.5074C7.89104 12.9675 8.658 12.6678 9.45411 12.668H28.5459C29.3421 12.6678 30.109 12.9675 30.6941 13.5074C31.2792 14.0473 31.6394 14.7877 31.7031 15.5813L32.9745 31.4146C33.0095 31.8504 32.9539 32.2886 32.8112 32.7018C32.6685 33.115 32.4418 33.4941 32.1453 33.8154C31.8489 34.1366 31.4892 34.393 31.0888 34.5685C30.6884 34.7439 30.2561 34.8345 29.819 34.8346H8.18111C7.74399 34.8345 7.31163 34.7439 6.91125 34.5685C6.51087 34.393 6.15114 34.1366 5.85472 33.8154C5.55829 33.4941 5.33159 33.115 5.18889 32.7018C5.04618 32.2886 4.99056 31.8504 5.02553 31.4146L6.29695 15.5813V15.5813Z" stroke="#111111" stroke-width="2" stroke-linecap="round" stroke-linejoin="round"/>
<path d="M25.3334 17.418V9.5013C25.3334 7.8216 24.6662 6.21069 23.4784 5.02296C22.2907 3.83523 20.6798 3.16797 19.0001 3.16797C17.3204 3.16797 15.7095 3.83523 14.5217 5.02296C13.334 6.21069 12.6667 7.8216 12.6667 9.5013V17.418" stroke="#111111" stroke-width="2" stroke-linecap="round" stroke-linejoin="round"/>
</svg>
